{"asset":{"version":"2.0","generator":"babylon.js glTF exporter for Autodesk Maya 2018.7 v20240312.5"},"scene":0,"scenes":[{"nodes":[0]}],"nodes":[{"children":[1,2,3,4,5,6,7,8,9],"name":"Geo"},{"mesh":0,"name":"Body"},{"mesh":1,"name":"LF_Up"},{"mesh":2,"name":"LF_Down"},{"mesh":3,"name":"LB_Up"},{"mesh":4,"name":"LB_Down"},{"mesh":5,"name":"RF_Up"},{"mesh":6,"name":"RF_Down"},{"mesh":7,"name":"RB_Up"},{"mesh":8,"name":"RB_Down"}],"meshes":[{"primitives":[{"attributes":{"POSITION":1,"TANGENT":2,"NORMAL":3,"TEXCOORD_0":4},"indices":0,"material":0}],"name":"Body"},{"primitives":[{"attributes":{"POSITION":6,"TANGENT":7,"NORMAL":8,"TEXCOORD_0":9},"indices":5,"material":0}],"name":"LF_Up"},{"primitives":[{"attributes":{"POSITION":11,"TANGENT":12,"NORMAL":13,"TEXCOORD_0":14},"indices":10,"material":0}],"name":"LF_Down"},{"primitives":[{"attributes":{"POSITION":16,"TANGENT":17,"NORMAL":18,"TEXCOORD_0":19},"indices":15,"material":0}],"name":"LB_Up"},{"primitives":[{"attributes":{"POSITION":21,"TANGENT":22,"NORMAL":23,"TEXCOORD_0":24},"indices":20,"material":0}],"name":"LB_Down"},{"primitives":[{"attributes":{"POSITION":26,"TANGENT":27,"NORMAL":28,"TEXCOORD_0":29},"indices":25,"material":0}],"name":"RF_Up"},{"primitives":[{"attributes":{"POSITION":31,"TANGENT":32,"NORMAL":33,"TEXCOORD_0":34},"indices":30,"material":0}],"name":"RF_Down"},{"primitives":[{"attributes":{"POSITION":36,"TANGENT":37,"NORMAL":38,"TEXCOORD_0":39},"indices":35,"material":0}],"name":"RB_Up"},{"primitives":[{"attributes":{"POSITION":41,"TANGENT":42,"NORMAL":43,"TEXCOORD_0":44},"indices":40,"material":0}],"name":"RB_Down"}],"accessors":[{"bufferView":0,"componentType":5123,"count":48426,"type":"SCALAR","name":"accessorIndices"},{"bufferView":1,"componentType":5126,"count":14328,"max":[0.26969406,1.04646122,0.7808157],"min":[-0.277904719,0.6015222,-0.7808157],"type":"VEC3","name":"accessorPositions"},{"bufferView":2,"componentType":5126,"count":14328,"type":"VEC4","name":"accessorTangents"},{"bufferView":1,"byteOffset":171936,"componentType":5126,"count":14328,"type":"VEC3","name":"accessorNormals"},{"bufferView":3,"componentType":5126,"count":14328,"type":"VEC2","name":"accessorUVs"},{"bufferView":0,"byteOffset":96852,"componentType":5123,"count":31566,"type":"SCALAR","name":"accessorIndices"},{"bufferView":1,"byteOffset":343872,"componentType":5126,"count":8099,"max":[0.28518486,0.762385368,0.5848281],"min":[0.159458533,0.344282538,0.4210821],"type":"VEC3","name":"accessorPositions"},{"bufferView":2,"byteOffset":229248,"componentType":5126,"count":8099,"type":"VEC4","name":"accessorTangents"},{"bufferView":1,"byteOffset":441060,"componentType":5126,"count":8099,"type":"VEC3","name":"accessorNormals"},{"bufferView":3,"byteOffset":114624,"componentType":5126,"count":8099,"type":"VEC2","name":"accessorUVs"},{"bufferView":0,"byteOffset":159984,"componentType":5123,"count":41415,"type":"SCALAR","name":"accessorIndices"},{"bufferView":1,"byteOffset":538248,"componentType":5126,"count":11610,"max":[0.31188944,0.4223626,0.54836905],"min":[0.214728013,0.004315843,0.442120165],"type":"VEC3","name":"accessorPositions"},{"bufferView":2,"byteOffset":358832,"componentType":5126,"count":11610,"type":"VEC4","name":"accessorTangents"},{"bufferView":1,"byteOffset":677568,"componentType":5126,"count":11610,"type":"VEC3","name":"accessorNormals"},{"bufferView":3,"byteOffset":179416,"componentType":5126,"count":11610,"type":"VEC2","name":"accessorUVs"},{"bufferView":0,"byteOffset":242816,"componentType":5123,"count":31566,"type":"SCALAR","name":"accessorIndices"},{"bufferView":1,"byteOffset":816888,"componentType":5126,"count":8099,"max":[0.28518486,0.762385368,-0.328163177],"min":[0.159458533,0.344282538,-0.491909236],"type":"VEC3","name":"accessorPositions"},{"bufferView":2,"byteOffset":544592,"componentType":5126,"count":8099,"type":"VEC4","name":"accessorTangents"},{"bufferView":1,"byteOffset":914076,"componentType":5126,"count":8099,"type":"VEC3","name":"accessorNormals"},{"bufferView":3,"byteOffset":272296,"componentType":5126,"count":8099,"type":"VEC2","name":"accessorUVs"},{"bufferView":0,"byteOffset":305948,"componentType":5123,"count":41415,"type":"SCALAR","name":"accessorIndices"},{"bufferView":1,"byteOffset":1011264,"componentType":5126,"count":11610,"max":[0.31188944,0.4223626,-0.364622235],"min":[0.214728013,0.004315843,-0.470871121],"type":"VEC3","name":"accessorPositions"},{"bufferView":2,"byteOffset":674176,"componentType":5126,"count":11610,"type":"VEC4","name":"accessorTangents"},{"bufferView":1,"byteOffset":1150584,"componentType":5126,"count":11610,"type":"VEC3","name":"accessorNormals"},{"bufferView":3,"byteOffset":337088,"componentType":5126,"count":11610,"type":"VEC2","name":"accessorUVs"},{"bufferView":0,"byteOffset":388780,"componentType":5123,"count":31566,"type":"SCALAR","name":"accessorIndices"},{"bufferView":1,"byteOffset":1289904,"componentType":5126,"count":8104,"max":[-0.159458533,0.762385368,0.5848281],"min":[-0.28518486,0.344282538,0.4210821],"type":"VEC3","name":"accessorPositions"},{"bufferView":2,"byteOffset":859936,"componentType":5126,"count":8104,"type":"VEC4","name":"accessorTangents"},{"bufferView":1,"byteOffset":1387152,"componentType":5126,"count":8104,"type":"VEC3","name":"accessorNormals"},{"bufferView":3,"byteOffset":429968,"componentType":5126,"count":8104,"type":"VEC2","name":"accessorUVs"},{"bufferView":0,"byteOffset":451912,"componentType":5123,"count":41415,"type":"SCALAR","name":"accessorIndices"},{"bufferView":1,"byteOffset":1484400,"componentType":5126,"count":11610,"max":[-0.214727968,0.4223626,0.54836905],"min":[-0.3118894,0.004315843,0.442120165],"type":"VEC3","name":"accessorPositions"},{"bufferView":2,"byteOffset":989600,"componentType":5126,"count":11610,"type":"VEC4","name":"accessorTangents"},{"bufferView":1,"byteOffset":1623720,"componentType":5126,"count":11610,"type":"VEC3","name":"accessorNormals"},{"bufferView":3,"byteOffset":494800,"componentType":5126,"count":11610,"type":"VEC2","name":"accessorUVs"},{"bufferView":0,"byteOffset":534744,"componentType":5123,"count":31566,"type":"SCALAR","name":"accessorIndices"},{"bufferView":1,"byteOffset":1763040,"componentType":5126,"count":8104,"max":[-0.159458533,0.762385368,-0.328163177],"min":[-0.28518486,0.344282538,-0.491909236],"type":"VEC3","name":"accessorPositions"},{"bufferView":2,"byteOffset":1175360,"componentType":5126,"count":8104,"type":"VEC4","name":"accessorTangents"},{"bufferView":1,"byteOffset":1860288,"componentType":5126,"count":8104,"type":"VEC3","name":"accessorNormals"},{"bufferView":3,"byteOffset":587680,"componentType":5126,"count":8104,"type":"VEC2","name":"accessorUVs"},{"bufferView":0,"byteOffset":597876,"componentType":5123,"count":41415,"type":"SCALAR","name":"accessorIndices"},{"bufferView":1,"byteOffset":1957536,"componentType":5126,"count":11610,"max":[-0.214727968,0.4223626,-0.364622235],"min":[-0.3118894,0.004315843,-0.470871121],"type":"VEC3","name":"accessorPositions"},{"bufferView":2,"byteOffset":1305024,"componentType":5126,"count":11610,"type":"VEC4","name":"accessorTangents"},{"bufferView":1,"byteOffset":2096856,"componentType":5126,"count":11610,"type":"VEC3","name":"accessorNormals"},{"bufferView":3,"byteOffset":652512,"componentType":5126,"count":11610,"type":"VEC2","name":"accessorUVs"}],"bufferViews":[{"buffer":0,"byteLength":680708,"name":"bufferViewScalar"},{"buffer":0,"byteOffset":680708,"byteLength":2236176,"byteStride":12,"name":"bufferViewFloatVec3"},{"buffer":0,"byteOffset":2916884,"byteLength":1490784,"byteStride":16,"name":"bufferViewFloatVec4"},{"buffer":0,"byteOffset":4407668,"byteLength":745392,"byteStride":8,"name":"bufferViewFloatVec2"}],"buffers":[{"uri":"Quadruped.bin","byteLength":5153060}],"materials":[{"pbrMetallicRoughness":{"baseColorTexture":{"index":1},"metallicFactor":0.0,"roughnessFactor":0.2},"normalTexture":{"index":0},"name":"aiStandardSurface1"}],"textures":[{"sampler":0,"source":0,"name":"Quard_Normal_OpenGL.png"},{"sampler":0,"source":1,"name":"Quard_Base_Color.png"}],"images":[{"uri":"Quard_Normal_OpenGL.png"},{"uri":"Quard_Base_Color.png"}],"samplers":[{"magFilter":9729,"minFilter":9987}]}