ply
format ascii 1.0
comment VCGLIB generated
element vertex 123
property float x
property float y
property float z
element face 242
property list uchar int vertex_indices
end_header
0.39632 -2.5 0.317046 
0.455201 -2.5 -0.304589 
-0.135202 -2.5 -0.501884 
-0.599398 -2.5 -0.128474 
-0.25199 -2.5 0.395663 
0.880038 -2.5 -0.448402 
0.448402 -2.5 -0.880037 
-0.154509 -2.5 -0.975528 
-0.698401 -2.5 -0.698401 
-0.975528 -2.5 -0.154509 
-0.880037 -2.5 0.448401 
-0.448401 -2.5 0.880037 
0.154509 -2.5 0.975528 
0.698401 -2.5 0.698401 
0.975528 -2.5 0.154509 
0.697257 -2 -0.698257 
0.154495 -2 -0.974472 
-0.448109 -2 -0.879367 
-0.879033 -2 -0.448485 
-0.974453 -2 0.155655 
-0.698124 -2 0.697417 
-0.154985 -2 0.974616 
0.44834 -2 0.879254 
0.879276 -2 0.447659 
0.974557 -2 -0.155212 
0.879044 -1.499999 -0.448458 
0.4482 -1.5 -0.878929 
-0.154225 -1.5 -0.974481 
-0.697432 -1.5 -0.698061 
-0.974595 -1.5 -0.155057 
-0.879358 -1.5 0.447759 
-0.448199 -1.5 0.879187 
0.154738 -1.5 0.974803 
0.697491 -1.49999 0.69807 
0.97454 -1.49999 0.155425 
0.697409 -1.00001 -0.69813 
0.154457 -1 -0.974845 
-0.448212 -1 -0.879286 
-0.879441 -1 -0.44726 
-0.974718 -1 0.154024 
-0.697918 -1 0.697633 
-0.154944 -1 0.974633 
0.448595 -1 0.879119 
0.879379 -0.999999 0.447465 
0.97461 -1 -0.153793 
0.879088 -0.5 -0.448331 
0.449118 -0.5 -0.87864 
-0.155263 -0.5 -0.974517 
-0.69739 -0.5 -0.698128 
-0.974626 -0.5 -0.154707 
-0.87917 -0.5 0.448542 
-0.448228 -0.5 0.879167 
0.154677 -0.5 0.974787 
0.697533 -0.5 0.698079 
0.974827 -0.5 0.153546 
0.697198 0 -0.698288 
0.154332 0 -0.974514 
-0.448241 0 -0.879271 
-0.87916 0 -0.448235 
-0.974461 9e-06 0.15459 
-0.698022 0 0.697484 
-0.153836 -0 0.974593 
0.447542 4e-06 0.879469 
0.879277 0 0.447657 
0.974609 0 -0.153806 
0.879041 0.5 -0.448393 
0.448679 0.5 -0.878851 
-0.154435 0.5 -0.974467 
-0.697507 0.5 -0.698044 
-0.974912 0.5 -0.154181 
-0.87923 0.5 0.448372 
-0.448218 0.5 0.879173 
0.154743 0.5 0.974422 
0.697499 0.5 0.698056 
0.974582 0.5 0.154114 
0.697895 1 -0.697808 
0.154071 1 -0.974551 
-0.447397 1 -0.879522 
-0.879337 1 -0.447504 
-0.974455 1 0.154438 
-0.697925 1 0.697602 
-0.153732 1 0.974617 
0.447427 1.000004 0.879514 
0.879147 1 0.448262 
0.974615 1 -0.153932 
0.879001 1.5 -0.448385 
0.447809 1.5 -0.879146 
-0.154504 1.5 -0.974433 
-0.697397 1.5 -0.698139 
-0.974561 1.5 -0.154045 
-0.879437 1.5 0.447525 
-0.44822 1.5 0.879177 
0.154553 1.5 0.974462 
0.697463 1.5 0.698042 
0.97456 1.5 0.154384 
0.698 1.999998 -0.697805 
0.154405 2 -0.974853 
-0.448318 2 -0.879262 
-0.878971 2 -0.448641 
-0.974767 2 0.15466 
-0.69808 2 0.697484 
-0.154198 2 0.974557 
0.448209 2 0.879292 
0.879206 2 0.447834 
0.974595 2 -0.154798 
0.880038 2.5 -0.448402 
0.448402 2.5 -0.880037 
-0.154509 2.5 -0.975528 
-0.698401 2.5 -0.698401 
-0.975528 2.5 -0.154509 
-0.880037 2.5 0.448401 
-0.448401 2.5 0.880037 
0.154509 2.5 0.975528 
0.698401 2.5 0.698401 
0.975528 2.5 0.154509 
-0.491567 2.5 -0.238154 
-0.515205 2.5 0.261894 
-0.057498 2.5 0.537382 
0.417906 2.5 0.377643 
-0.023602 2.5 -0.521294 
0.49513 2.5 -0.174269 
-0.049772 2.5 0.052874 
-0.016808 -2.5 -0.009312 
3 2 122 3 
3 2 3 8 
3 3 4 10 
3 0 1 14 
3 5 1 6 
3 1 2 6 
3 6 2 7 
3 2 8 7 
3 8 3 9 
3 3 10 9 
3 10 4 11 
3 11 4 12 
3 4 0 12 
3 12 0 13 
3 0 14 13 
3 14 1 5 
3 24 5 15 
3 5 6 15 
3 15 6 16 
3 6 7 16 
3 16 7 17 
3 7 8 17 
3 17 8 18 
3 8 9 18 
3 18 9 19 
3 9 10 19 
3 19 10 20 
3 10 11 20 
3 20 11 21 
3 11 12 21 
3 21 12 22 
3 12 13 22 
3 22 13 23 
3 13 14 23 
3 23 14 24 
3 14 5 24 
3 24 15 25 
3 25 15 26 
3 15 16 26 
3 26 16 27 
3 16 17 27 
3 27 17 28 
3 17 18 28 
3 28 18 29 
3 18 19 29 
3 29 19 30 
3 19 20 30 
3 30 20 31 
3 20 21 31 
3 31 21 32 
3 21 22 32 
3 32 22 33 
3 22 23 33 
3 33 23 34 
3 23 24 34 
3 34 24 25 
3 44 25 35 
3 25 26 35 
3 35 26 36 
3 26 27 36 
3 36 27 37 
3 27 28 37 
3 37 28 38 
3 28 29 38 
3 38 29 39 
3 29 30 39 
3 39 30 40 
3 30 31 40 
3 40 31 41 
3 31 32 41 
3 41 32 42 
3 32 33 42 
3 42 33 43 
3 33 34 43 
3 43 34 44 
3 34 25 44 
3 44 35 45 
3 45 35 46 
3 35 36 46 
3 46 36 47 
3 36 37 47 
3 47 37 48 
3 37 38 48 
3 48 38 49 
3 38 39 49 
3 49 39 50 
3 39 40 50 
3 50 40 51 
3 40 41 51 
3 51 41 52 
3 41 42 52 
3 52 42 53 
3 42 43 53 
3 53 43 54 
3 43 44 54 
3 54 44 45 
3 64 45 55 
3 45 46 55 
3 55 46 56 
3 46 47 56 
3 56 47 57 
3 47 48 57 
3 57 48 58 
3 48 49 58 
3 58 49 59 
3 49 50 59 
3 59 50 60 
3 50 51 60 
3 60 51 61 
3 51 52 61 
3 61 52 62 
3 52 53 62 
3 62 53 63 
3 53 54 63 
3 63 54 64 
3 54 45 64 
3 64 55 65 
3 65 55 66 
3 55 56 66 
3 66 56 67 
3 56 57 67 
3 67 57 68 
3 57 58 68 
3 68 58 69 
3 58 59 69 
3 69 59 70 
3 59 60 70 
3 70 60 71 
3 60 61 71 
3 71 61 72 
3 61 62 72 
3 72 62 73 
3 62 63 73 
3 73 63 74 
3 63 64 74 
3 74 64 65 
3 84 65 75 
3 65 66 75 
3 75 66 76 
3 66 67 76 
3 76 67 77 
3 67 68 77 
3 77 68 78 
3 68 69 78 
3 78 69 79 
3 69 70 79 
3 79 70 80 
3 70 71 80 
3 80 71 81 
3 71 72 81 
3 81 72 82 
3 72 73 82 
3 82 73 83 
3 73 74 83 
3 83 74 84 
3 74 65 84 
3 84 75 85 
3 85 75 86 
3 75 76 86 
3 86 76 87 
3 76 77 87 
3 87 77 88 
3 77 78 88 
3 88 78 89 
3 78 79 89 
3 89 79 90 
3 79 80 90 
3 90 80 91 
3 80 81 91 
3 91 81 92 
3 81 82 92 
3 92 82 93 
3 82 83 93 
3 93 83 94 
3 83 84 94 
3 94 84 85 
3 104 85 95 
3 85 86 95 
3 95 86 96 
3 86 87 96 
3 96 87 97 
3 87 88 97 
3 97 88 98 
3 88 89 98 
3 98 89 99 
3 89 90 99 
3 99 90 100 
3 90 91 100 
3 100 91 101 
3 91 92 101 
3 101 92 102 
3 92 93 102 
3 102 93 103 
3 93 94 103 
3 103 94 104 
3 94 85 104 
3 104 95 105 
3 105 95 106 
3 95 96 106 
3 106 96 107 
3 96 97 107 
3 107 97 108 
3 97 98 108 
3 108 98 109 
3 98 99 109 
3 109 99 110 
3 99 100 110 
3 110 100 111 
3 100 101 111 
3 111 101 112 
3 101 102 112 
3 112 102 113 
3 102 103 113 
3 113 103 114 
3 103 104 114 
3 114 104 105 
3 105 106 120 
3 120 106 119 
3 106 107 119 
3 107 108 119 
3 119 108 115 
3 108 109 115 
3 109 110 116 
3 115 109 116 
3 110 111 116 
3 116 111 117 
3 111 112 117 
3 112 113 118 
3 117 112 118 
3 113 114 118 
3 118 114 120 
3 114 105 120 
3 120 119 121 
3 119 115 121 
3 117 118 121 
3 118 120 121 
3 2 1 122 
3 4 3 122 
3 0 4 122 
3 1 0 122 
3 121 115 116 
3 121 116 117 
