ply
format ascii 1.0
comment VCGLIB generated
element vertex 248
property float x
property float y
property float z
element face 492
property list uchar int vertex_indices
end_header
-0.009514 -0.996882 -0.038106 
0.112106 -0.987954 0.101688 
0.241042 -0.963156 -0.089577 
-0.006792 -0.972679 -0.217877 
-0.00874 -0.959267 0.273433 
0.197442 -0.942151 0.264227 
0.288256 -0.947834 0.123484 
0.201123 -0.8985 -0.380723 
-0.045914 -0.892518 -0.44307 
-0.199391 -0.95879 -0.187252 
-0.422287 -0.899575 -0.069569 
-0.270761 -0.919204 0.268289 
0.114793 -0.856242 0.49254 
0.428284 -0.868688 0.226372 
0.447369 -0.849895 -0.255633 
0.173981 -0.811999 -0.555363 
-0.252238 -0.814262 -0.513555 
-0.459025 -0.815286 -0.347705 
-0.594509 -0.802631 0.004751 
-0.478447 -0.86123 0.152385 
-0.267202 -0.790135 0.539926 
-0.118443 -0.868561 0.47186 
0.317367 -0.839469 0.43424 
0.497095 -0.863469 0.011576 
0.653079 -0.716271 -0.233278 
0.38707 -0.761996 -0.510852 
-0.005111 -0.759278 -0.645213 
-0.61711 -0.643195 -0.445971 
-0.614742 -0.759102 -0.198798 
-0.760147 -0.643407 -0.008616 
-0.658388 -0.720529 0.20838 
-0.524811 -0.760485 0.372394 
-0.015231 -0.727432 0.680897 
0.205307 -0.71712 0.662866 
0.440481 -0.649571 0.61387 
0.534315 -0.750008 0.380428 
0.646971 -0.732661 0.19078 
0.641171 -0.753647 -0.072253 
0.763923 -0.595381 -0.243756 
0.62153 -0.640571 -0.442173 
0.471448 -0.593225 -0.651438 
0.233601 -0.65432 -0.714784 
-0.00176 -0.58634 -0.809624 
-0.226204 -0.646635 -0.722927 
-0.443179 -0.650844 -0.611291 
-0.759145 -0.593668 -0.259237 
-0.770565 -0.58676 0.246741 
-0.462163 -0.635795 0.610599 
-0.238012 -0.645341 0.721039 
0.01066 -0.592613 0.803205 
0.257767 -0.57898 0.771445 
0.645524 -0.592047 0.479429 
0.770111 -0.582052 0.256289 
0.765022 -0.630984 0.044825 
0.809308 -0.430987 -0.370822 
0.641503 -0.448792 -0.606066 
0.44746 -0.41851 -0.775988 
0.186616 -0.426394 -0.872881 
-0.107053 -0.424184 -0.886398 
-0.371468 -0.431036 -0.808956 
-0.603369 -0.43083 -0.654592 
-0.776793 -0.428788 -0.436618 
-0.872978 -0.428493 -0.180514 
-0.887223 -0.428798 0.089776 
-0.837093 -0.442141 0.306239 
-0.6808 -0.523175 0.504541 
-0.442935 -0.435679 0.77041 
-0.172268 -0.443453 0.868087 
0.104114 -0.366568 0.910729 
0.391974 -0.465607 0.780078 
0.583139 -0.430626 0.67494 
0.875894 -0.420412 0.183236 
0.885254 -0.428902 -0.101937 
0.881967 -0.274214 -0.356312 
0.730477 -0.274543 -0.609521 
0.237361 -0.270323 -0.922752 
-0.359437 -0.26853 -0.881887 
-0.617001 -0.270871 -0.724229 
-0.810602 -0.270871 -0.498119 
-0.924856 -0.270871 -0.22325 
-0.96332 -0.248587 -0.014171 
-0.524824 -0.279696 0.794647 
0.667958 -0.302356 0.662714 
0.853482 -0.292385 0.402725 
0.932114 -0.250336 0.208552 
0.948246 -0.27477 -0.06966 
0.439992 -0.214886 -0.855119 
-0.096734 -0.23552 -0.953381 
-0.839425 -0.04171 -0.520965 
-0.957903 -0.108864 -0.211702 
-0.977905 -0.11437 0.082675 
-0.913034 -0.118066 0.363427 
-0.568985 -0.066006 0.812838 
0.143202 -0.163452 0.963323 
0.796794 -0.152413 0.583254 
0.986247 -0.151135 -0.011735 
0.909941 0.038272 -0.38316 
0.827397 -0.10151 -0.534332 
0.549859 0.020723 -0.826534 
0.218077 0.11396 -0.956492 
-0.06381 -0.023204 -0.988067 
-0.751752 -0.039569 0.6407 
0.624363 -0.063617 0.765446 
0.890964 -0.083465 0.412664 
0.76344 0.089802 -0.623492 
0.008456 0.164093 -0.984511 
-0.829191 0.199535 -0.498895 
-0.981971 0.050381 -0.0888 
-0.944326 0.203978 0.201716 
-0.599472 0.192775 0.767947 
-0.391637 0.119943 0.898496 
0.084767 0.207207 0.962073 
0.366632 0.196806 0.897309 
0.629793 0.19458 0.737021 
0.860787 0.198595 0.437375 
0.984932 0.05125 0.069672 
0.77003 0.31048 -0.556503 
0.149258 0.305071 -0.928364 
-0.078096 0.341447 -0.925255 
-0.336301 0.340423 -0.868481 
-0.594274 0.340502 -0.715948 
-0.755126 0.318197 -0.568 
-0.952621 0.301777 -0.001101 
-0.500296 0.33484 0.787484 
0.660631 0.310759 0.6668 
0.927612 0.266347 0.212702 
0.933587 0.326133 -0.065537 
0.849049 0.461455 -0.236036 
0.739584 0.459662 -0.479372 
0.598176 0.433177 -0.658427 
0.295278 0.452503 -0.83792 
0.028793 0.470919 -0.876073 
-0.491656 0.471261 -0.725446 
-0.821742 0.41454 -0.361241 
-0.873578 0.42654 0.181832 
-0.779988 0.420417 0.437891 
-0.298709 0.455231 0.834647 
-0.041264 0.434412 0.892581 
0.206828 0.369445 0.893269 
0.836603 0.442163 0.30718 
0.881387 0.460861 0.034158 
0.759224 0.598359 -0.250365 
0.464953 0.578536 -0.66618 
-0.240296 0.520542 -0.812165 
-0.669959 0.527538 -0.511648 
-0.807886 0.588875 -0.00126 
-0.766078 0.593631 0.239584 
-0.616322 0.637423 0.454499 
-0.49385 0.529032 0.685085 
-0.244928 0.590633 0.767792 
-0.002182 0.58838 0.808163 
0.242297 0.576669 0.777453 
0.677016 0.528304 0.503935 
0.76652 0.592009 0.245539 
0.801829 0.595368 -0.004489 
0.650682 0.723802 -0.218799 
0.607017 0.645052 -0.454702 
0.397827 0.728144 -0.553828 
0.217817 0.657145 -0.71528 
-0.01406 0.647685 -0.755631 
-0.230347 0.702728 -0.670612 
-0.449284 0.657082 -0.598083 
-0.519661 0.764053 -0.373412 
-0.721753 0.647147 -0.230857 
-0.691369 0.718783 0.013048 
-0.648818 0.722317 0.226241 
-0.392492 0.71687 0.571178 
-0.195064 0.700194 0.682116 
0.016857 0.715011 0.695183 
0.246176 0.707602 0.657759 
0.457332 0.653108 0.594776 
0.571294 0.711256 0.406563 
0.659773 0.72 0.203546 
0.689813 0.720383 -0.011045 
-0.009696 0.804472 -0.591572 
-0.253713 0.830153 -0.484059 
-0.505584 0.845473 -0.143393 
-0.475069 0.810359 0.341627 
-0.170861 0.807236 0.562809 
0.346978 0.809838 0.47217 
0.433634 0.84862 0.287117 
0.459981 0.835481 -0.282055 
0.194696 0.84523 -0.486856 
-0.505282 0.850552 0.092976 
-0.303935 0.848505 0.425271 
-0.138923 0.901138 0.405355 
0.103326 0.848807 0.506489 
0.508112 0.845018 0.132114 
0.516269 0.849106 -0.038491 
-0.044229 0.923684 -0.368097 
-0.310249 0.922066 -0.21566 
-0.167497 0.967361 0.169277 
0.234866 0.929892 0.268142 
0.30855 0.947671 0.054566 
0.146914 0.963885 -0.20846 
-0.059762 0.990193 -0.107675 
0.099451 0.990276 0.073134 
-0.500992 -0.086464 -0.845698 
-0.070883 -0.014552 0.987628 
0.197944 0.020295 0.967052 
0.966383 0.091035 -0.167012 
0.871912 0.223706 -0.402427 
0.404149 0.220866 -0.87179 
0.432464 0.345711 0.817055 
-0.883484 0.428948 -0.112989 
0.028062 0.955773 0.28493 
0.584698 -0.326259 -0.733764 
-0.818488 -0.263007 0.486751 
-0.365148 -0.258362 0.881684 
0.663741 -0.124306 -0.719397 
0.380659 -0.011806 -0.913524 
0.149358 -0.087283 -0.969475 
-0.714796 -0.132407 -0.667451 
-0.883972 0.002703 0.440216 
0.949849 -0.104256 -0.264837 
-0.66926 0.133633 -0.712852 
-0.92712 0.061794 -0.345416 
-0.967136 0.036056 0.189581 
-0.457167 0.194709 -0.851737 
-0.923452 0.23966 -0.279422 
0.874104 0.333463 -0.331537 
-0.671349 0.393652 0.608122 
-0.330783 0.912566 0.225257 
0.318934 0.884547 -0.329926 
-0.318431 0.946589 -0.008671 
-0.595109 -0.420539 0.668806 
-0.922134 -0.25114 0.270345 
-0.676301 -0.280719 0.661627 
-0.298713 -0.050265 -0.948733 
-0.391696 -0.059443 0.903744 
0.449534 0.054151 0.874735 
0.632591 0.254151 -0.714246 
-0.19423 0.190987 -0.94863 
-0.805137 0.214747 0.538159 
-0.276 0.298138 0.909955 
0.482105 0.391082 -0.770929 
0.345991 0.925942 -0.125154 
0.060349 -0.313031 -0.939836 
0.442542 0.534081 0.707797 
-0.189228 -0.972591 0.105764 
-0.275459 -0.903499 -0.31655 
0.516695 -0.293713 0.795058 
-0.132048 -0.21736 0.952147 
0.374452 -0.194316 0.893987 
0.954818 -0.026107 0.272294 
-0.137692 0.202538 0.954812 
0.778851 0.325247 0.525883 
0.794555 0.025415 0.599453 
3 24 25 39 
3 25 15 41 
3 43 16 44 
3 16 17 44 
3 32 12 33 
3 24 39 38 
3 39 25 40 
3 46 30 65 
3 31 47 65 
3 35 36 52 
3 51 35 52 
3 39 40 55 
3 40 41 57 
3 59 44 60 
3 60 27 61 
3 63 46 64 
3 65 47 225 
3 47 48 66 
3 66 48 67 
3 49 50 68 
3 68 50 69 
3 34 51 70 
3 82 51 83 
3 51 52 83 
3 83 52 71 
3 206 56 86 
3 80 63 226 
3 152 124 246 
3 140 126 127 
3 156 129 142 
3 131 143 159 
3 133 204 163 
3 134 135 146 
3 141 156 155 
3 156 142 157 
3 142 158 157 
3 143 132 160 
3 166 149 167 
3 149 150 167 
3 167 150 168 
3 150 151 168 
3 168 151 169 
3 155 156 181 
3 156 157 181 
3 181 157 223 
3 157 158 182 
3 174 160 175 
3 167 168 178 
3 168 169 186 
3 169 170 179 
3 187 173 188 
3 173 155 188 
3 188 155 181 
3 186 192 205 
3 180 187 193 
3 205 192 196 
3 9 239 10 
3 6 1 2 
3 7 3 8 
3 3 9 240 
3 10 239 19 
3 239 11 19 
3 13 6 23 
3 23 2 14 
3 14 7 25 
3 9 10 240 
3 28 10 18 
3 10 19 18 
3 19 11 31 
3 31 11 20 
3 44 17 27 
3 33 22 34 
3 35 13 36 
3 13 23 36 
3 36 23 37 
3 48 32 49 
3 32 33 49 
3 49 33 50 
3 33 34 50 
3 34 35 51 
3 53 37 38 
3 38 39 54 
3 54 39 55 
3 56 40 57 
3 41 42 57 
3 237 42 58 
3 42 43 58 
3 58 43 59 
3 43 44 59 
3 44 27 60 
3 27 45 61 
3 61 45 62 
3 45 29 62 
3 62 29 63 
3 29 46 63 
3 46 65 64 
3 50 34 69 
3 52 53 71 
3 71 53 72 
3 53 38 72 
3 72 38 54 
3 73 54 74 
3 243 69 241 
3 214 73 97 
3 211 75 237 
3 91 226 207 
3 102 82 94 
3 95 85 214 
3 200 95 214 
3 201 96 104 
3 106 88 216 
3 216 89 107 
3 120 215 121 
3 133 106 219 
3 139 125 140 
3 132 144 161 
3 144 133 163 
3 163 204 145 
3 145 134 146 
3 146 135 147 
3 135 221 147 
3 148 136 149 
3 136 137 149 
3 149 137 150 
3 137 138 150 
3 150 138 151 
3 138 203 151 
3 169 238 170 
3 238 152 170 
3 152 139 153 
3 139 140 153 
3 153 140 154 
3 140 127 154 
3 154 127 141 
3 161 144 162 
3 170 152 171 
3 172 154 173 
3 175 161 162 
3 163 164 176 
3 176 164 183 
3 165 147 177 
3 183 165 177 
3 177 166 184 
3 166 167 178 
3 184 166 178 
3 177 184 222 
3 184 178 185 
3 178 186 185 
3 182 189 194 
3 176 183 224 
3 190 176 224 
3 183 222 224 
3 191 185 205 
3 189 190 195 
3 4 1 5 
3 5 1 6 
3 14 2 7 
3 2 3 7 
3 21 4 12 
3 4 5 12 
3 12 5 22 
3 5 6 13 
3 22 5 13 
3 6 2 23 
3 25 7 15 
3 7 8 15 
3 15 8 26 
3 26 8 16 
3 8 3 240 
3 17 10 28 
3 11 4 21 
3 22 13 35 
3 23 14 37 
3 37 14 24 
3 24 14 25 
3 15 26 41 
3 26 16 43 
3 17 28 27 
3 28 18 29 
3 18 19 30 
3 29 18 30 
3 19 31 30 
3 31 20 47 
3 47 20 48 
3 48 20 32 
3 21 12 32 
3 12 22 33 
3 22 35 34 
3 25 41 40 
3 41 26 42 
3 26 43 42 
3 27 28 45 
3 28 29 45 
3 29 30 46 
3 30 31 65 
3 52 36 53 
3 37 24 38 
3 48 49 67 
3 76 59 77 
3 77 60 78 
3 78 61 79 
3 79 62 80 
3 64 65 207 
3 84 71 85 
3 85 72 73 
3 89 79 80 
3 90 80 226 
3 115 84 95 
3 110 92 229 
3 230 243 241 
3 94 83 103 
3 108 213 233 
3 125 244 115 
3 204 219 122 
3 135 108 233 
3 126 200 220 
3 116 231 129 
3 130 117 131 
3 131 118 143 
3 143 119 132 
3 132 120 144 
3 121 106 133 
3 122 108 134 
3 148 123 136 
3 136 234 137 
3 137 111 138 
3 238 124 152 
3 127 128 141 
3 141 128 156 
3 128 129 156 
3 129 235 142 
3 142 130 158 
3 130 131 158 
3 158 131 159 
3 160 132 161 
3 204 134 145 
3 159 143 160 
3 162 144 163 
3 163 145 164 
3 145 146 164 
3 164 146 165 
3 146 147 165 
3 147 148 166 
3 148 149 166 
3 152 153 171 
3 171 153 172 
3 153 154 172 
3 154 141 173 
3 173 141 155 
3 158 159 174 
3 182 158 174 
3 159 160 174 
3 160 161 175 
3 162 163 176 
3 164 165 183 
3 147 166 177 
3 178 168 186 
3 186 169 179 
3 170 171 179 
3 179 171 180 
3 171 172 180 
3 180 172 187 
3 172 173 187 
3 182 174 189 
3 174 175 189 
3 175 162 190 
3 162 176 190 
3 186 179 192 
3 179 180 192 
3 175 190 189 
3 222 185 191 
3 185 186 205 
3 192 180 193 
3 193 188 236 
3 194 236 223 
3 193 187 188 
3 194 189 195 
3 190 224 195 
3 193 194 196 
3 3 2 0 
3 239 9 0 
3 1 4 239 
3 194 195 196 
3 195 224 191 
3 195 191 196 
3 191 205 196 
3 56 57 75 
3 57 42 237 
3 63 64 226 
3 66 67 208 
3 74 206 209 
3 76 77 197 
3 201 104 116 
3 122 217 108 
3 111 112 138 
3 203 124 238 
3 114 125 139 
3 126 220 127 
3 54 55 74 
3 55 206 74 
3 93 69 243 
3 73 74 97 
3 82 83 94 
3 85 73 214 
3 214 97 96 
3 209 98 104 
3 86 75 210 
3 88 89 216 
3 90 91 217 
3 91 207 213 
3 244 84 115 
3 96 97 104 
3 98 210 202 
3 99 211 100 
3 100 228 232 
3 228 197 218 
3 216 107 219 
3 102 247 113 
3 215 106 121 
3 112 113 203 
3 113 247 124 
3 125 126 140 
3 58 59 76 
3 59 60 77 
3 60 61 78 
3 61 62 79 
3 62 63 80 
3 64 207 226 
3 225 81 227 
3 70 51 82 
3 71 72 85 
3 72 54 73 
3 77 78 212 
3 78 79 88 
3 207 227 101 
3 84 85 95 
3 89 90 107 
3 92 81 229 
3 102 94 247 
3 213 101 233 
3 101 92 109 
3 92 110 109 
3 99 105 117 
3 105 232 118 
3 219 107 122 
3 233 109 221 
3 123 110 234 
3 110 229 245 
3 125 115 126 
3 115 200 126 
3 116 129 128 
3 235 202 130 
3 117 118 131 
3 118 119 143 
3 119 120 132 
3 120 121 144 
3 121 133 144 
3 122 134 204 
3 108 135 134 
3 221 123 148 
3 123 234 136 
3 234 245 137 
3 225 47 66 
3 67 49 68 
3 86 56 75 
3 81 66 208 
3 97 74 209 
3 228 76 197 
3 111 199 112 
3 220 200 201 
3 202 235 231 
3 223 157 182 
3 196 192 193 
3 55 40 56 
3 55 56 206 
3 228 87 76 
3 213 207 101 
3 208 229 81 
3 98 209 86 
3 98 86 210 
3 105 99 100 
3 200 214 96 
3 231 98 202 
3 105 100 232 
3 106 216 219 
3 119 218 120 
3 133 219 204 
3 127 220 128 
3 221 148 147 
3 203 238 151 
3 222 183 177 
3 222 184 185 
3 194 223 182 
3 222 191 224 
3 11 21 20 
3 87 58 76 
3 81 225 66 
3 67 68 242 
3 89 80 90 
3 90 226 91 
3 92 227 81 
3 245 229 198 
3 231 104 98 
3 233 101 109 
3 112 230 113 
3 119 232 218 
3 135 233 221 
3 110 123 109 
3 231 235 129 
3 235 130 142 
3 188 181 236 
3 223 236 181 
3 193 236 194 
3 208 67 242 
3 209 206 86 
3 211 210 75 
3 197 77 212 
3 230 241 102 
3 198 199 111 
3 199 230 112 
3 200 96 201 
3 117 202 99 
3 138 112 203 
3 104 97 209 
3 210 211 99 
3 211 87 100 
3 215 197 212 
3 217 91 213 
3 115 95 200 
3 210 99 202 
3 232 228 218 
3 197 215 218 
3 215 212 88 
3 217 213 108 
3 247 114 246 
3 218 215 120 
3 203 113 124 
3 201 116 220 
3 128 220 116 
3 65 227 207 
3 227 65 225 
3 212 78 88 
3 88 79 89 
3 227 92 101 
3 242 68 93 
3 68 69 93 
3 107 90 217 
3 208 242 229 
3 198 229 242 
3 199 243 230 
3 114 247 103 
3 230 102 113 
3 114 103 244 
3 104 231 116 
3 117 105 118 
3 232 119 118 
3 109 123 221 
3 202 117 130 
3 237 75 57 
3 152 246 139 
3 151 238 169 
3 11 239 4 
3 16 240 17 
3 240 10 17 
3 69 34 70 
3 241 69 70 
3 211 237 87 
3 239 0 1 
3 8 240 16 
3 20 21 32 
3 53 36 37 
3 0 2 1 
3 0 9 3 
3 237 58 87 
3 83 71 84 
3 107 217 122 
3 82 241 70 
3 103 84 244 
3 242 93 198 
3 199 198 93 
3 93 243 199 
3 245 198 111 
3 245 111 137 
3 139 246 114 
3 245 234 110 
3 241 82 102 
3 103 83 84 
3 100 87 228 
3 215 88 106 
3 247 246 124 
3 247 94 103 
3 114 244 125 
