ply
format ascii 1.0
comment VCGLIB generated
element vertex 466
property float x
property float y
property float z
element face 932
property list uchar int vertex_indices
end_header
0.258012 0.039788 -0.426829 
-0.504789 0.042016 -0.011046 
-0.445397 0.03204 0.231132 
0.435549 0.027116 0.246434 
-0.456479 0.28254 -0.374814 
0.470947 0.230373 0.30266 
0.518087 0.137559 -0.061104 
-0.639513 0.364734 -0.200084 
-0.55068 0.230798 0.069666 
-0.497927 0.257584 0.28311 
-0.400367 0.322813 0.478452 
0.277748 0.443687 -0.737259 
0.755116 0.477763 -0.413866 
0.02497 0.456937 -0.800022 
-0.226029 0.484245 -0.871141 
-0.729232 0.473991 0.438052 
0.263609 0.488129 0.931703 
-0.317752 0.472874 -1.083082 
-0.988528 0.447292 -0.670812 
-1.211348 0.440059 0.061964 
-0.36348 0.450682 1.138522 
0.325927 0.440955 1.164225 
1.165951 0.430679 0.391086 
-0.381498 0.360026 -1.270876 
-1.059793 0.326058 -0.849198 
-1.255984 0.378757 -0.379895 
-1.383718 0.288704 -0.032805 
-1.244133 0.381981 0.417612 
-1.067055 0.37689 0.773311 
0.388563 0.292702 1.335384 
1.33215 0.353253 0.061255 
-0.466792 0.20634 -1.366216 
-1.36227 0.225684 0.443579 
-0.512515 0.358854 1.217735 
1.395905 0.281595 -0.066095 
-1.180907 0.189488 -0.838256 
-1.411623 0.059201 -0.470896 
-1.472284 0.064035 -0.095508 
-0.036007 0.115385 1.47151 
1.405026 0.104198 0.46385 
0.894808 -0.05008 -1.187071 
0.470553 -0.090429 -1.40172 
-0.841048 -0.066865 -1.21852 
0.002532 -0.064423 1.48433 
0.423546 -0.04266 1.418025 
1.42061 -0.133858 -0.356769 
1.254905 -0.054695 -0.761397 
-0.81984 -0.23412 -1.168536 
-1.187242 -0.159813 -0.859376 
-0.862136 -0.201914 1.162158 
0.846479 -0.175937 1.187454 
1.303247 -0.306873 0.43618 
1.464713 -0.153213 -0.035037 
-0.123062 -0.183092 -1.431806 
-1.199941 -0.252141 0.741117 
0.771351 -0.347824 1.102275 
0.997443 -0.403278 0.785478 
1.165346 -0.438374 -0.361675 
1.033184 -0.412762 -0.724055 
-0.747173 -0.382765 -1.068746 
-1.02317 -0.428809 -0.685169 
-1.045276 -0.415486 0.698467 
0.988822 -0.489679 -0.365949 
-0.856745 -0.484591 -0.637908 
-1.022695 -0.487909 -0.292119 
1.049605 -0.483963 0.215665 
0.760588 -0.465793 -0.341642 
-0.805242 -0.460494 -0.210749 
0.775961 -0.438321 0.038865 
0.67784 -0.397296 -0.154051 
0.183811 -0.36091 -0.633795 
-0.537378 -0.368572 -0.396018 
-0.726034 -0.429144 0.196584 
-0.625589 -0.41055 0.360431 
0.222501 -0.422437 0.709369 
0.392543 -0.399925 0.5838 
0.660621 -0.427547 0.345694 
0.428687 -0.264139 -0.385837 
0.039315 -0.230507 -0.557322 
-0.186507 -0.328361 -0.594533 
-0.568656 -0.308698 0.215814 
-0.299479 -0.233587 0.474398 
0.066947 -0.267284 0.573192 
0.248689 -0.283473 0.528823 
0.163711 -0.109804 0.486284 
0.322888 0.20458 -0.443292 
-0.350796 0.442226 -0.690919 
-0.509283 0.415606 -0.512231 
-0.64815 0.380479 0.222239 
-0.555608 0.415958 0.470215 
-0.398588 0.437435 0.655813 
1.016203 0.366811 0.836981 
1.330906 0.288803 0.42062 
1.190026 0.160766 -0.848651 
1.307379 0.302271 -0.431943 
1.3028 0.159491 -0.626434 
0.885658 0.129187 -1.171458 
0.024434 0.269158 -1.410286 
-1.349339 0.305086 0.219376 
0.305704 0.161276 1.4155 
0.944561 0.162266 1.1032 
-0.604699 0.254791 -1.263448 
0.624638 0.177036 1.299125 
0.851308 0.048971 1.218719 
1.129831 -0.11116 0.933906 
-0.537646 0.001261 -1.377245 
-0.454781 -0.191069 1.380354 
1.004764 -0.052334 1.076088 
1.343329 -0.069945 0.58764 
1.448693 -0.129708 0.157078 
1.419721 -0.082455 0.388751 
1.375024 -0.074752 -0.535677 
0.437789 -0.293939 -1.316761 
-0.273868 -0.269666 -1.365944 
0.035131 -0.122325 -1.468072 
-0.629661 -0.181313 -1.297029 
-1.120934 -0.315779 -0.799685 
-1.051007 -0.241011 -0.947876 
-1.259931 -0.188687 -0.688684 
-1.392151 -0.249962 0.211449 
-0.991666 -0.156289 1.063432 
1.22871 -0.273089 -0.654403 
1.305832 -0.308334 -0.422073 
0.036842 -0.341923 -1.345607 
-0.252348 -0.434317 -1.193009 
-0.424578 -0.462947 -1.083645 
-0.605338 -0.4703 -0.969407 
-1.203149 -0.435829 -0.169892 
-0.495359 -0.432922 1.114816 
1.203021 -0.441908 0.019783 
1.096057 -0.476426 -0.200631 
-1.043521 -0.464793 -0.495263 
0.641539 -0.48953 0.82517 
0.441572 -0.456916 1.073681 
0.800613 -0.482233 0.748698 
0.882782 -0.484285 0.614674 
0.680197 -0.490146 -0.791678 
-0.252388 -0.49276 -0.987322 
0.123072 -0.484614 0.886428 
-0.0398 -0.398181 -0.700494 
-0.679195 -0.46505 -0.464908 
-0.638655 -0.393193 -0.279744 
-0.789437 -0.450476 -0.005633 
-0.55799 -0.434406 0.514722 
-0.402726 -0.445241 0.675654 
0.361629 -0.367427 -0.556775 
-0.395013 -0.36557 -0.533716 
-0.535251 -0.286496 -0.240476 
-0.331621 -0.357266 0.561634 
-0.128606 -0.301675 0.583313 
0.006644 -0.391451 0.695455 
0.639432 -0.346589 0.054719 
0.519798 -0.229 -0.188806 
0.239819 -0.174078 -0.482021 
-0.281028 -0.235161 -0.486861 
0.563885 -0.240789 -0.013895 
-0.093537 -0.101281 -0.502663 
-0.420571 -0.191333 -0.333121 
-0.506966 -0.158552 -0.129812 
-0.525764 -0.154355 0.052831 
-0.082833 0.120854 -0.510587 
-0.289148 -0.044203 -0.410584 
-0.330314 0.137232 -0.405412 
-0.442297 0.034597 -0.227935 
-0.12544 0.090045 0.493675 
0.072115 0.067473 0.499855 
0.288795 0.07446 0.412933 
0.538285 0.205849 0.101274 
0.429762 0.114606 -0.27274 
0.457488 0.27148 -0.358615 
-0.534634 0.210414 -0.107197 
-0.20334 0.302341 0.570935 
0.596579 0.40583 -0.38664 
0.744484 0.438026 -0.175629 
0.431192 0.398011 -0.555024 
0.274659 0.311435 -0.539949 
0.106677 0.303438 -0.589475 
-0.064706 0.326992 -0.618694 
-0.278652 0.297814 -0.531461 
0.016135 0.276053 0.587649 
0.200231 0.252755 0.538941 
0.384574 0.306118 0.467125 
0.620157 0.416065 0.396182 
0.649676 0.369675 0.194549 
0.546997 0.264739 -0.187555 
0.621413 0.477748 -0.580289 
-0.149692 0.418107 -0.712515 
-0.666555 0.440151 -0.38295 
0.508555 0.454122 0.620205 
0.902926 0.49047 -0.323774 
-0.870119 0.487437 0.305123 
-0.003453 0.491574 0.954611 
0.963803 0.495004 -0.075479 
0.421481 0.487666 -0.95635 
0.072389 0.476894 -1.080186 
0.167683 0.407113 -1.246629 
-0.434574 0.489928 -0.912691 
-0.632154 0.475907 -0.903507 
-0.741844 0.485643 -0.59226 
-0.893141 0.488211 -0.463878 
-1.032518 0.479705 -0.321043 
-1.035201 0.489751 -0.048328 
-1.041593 0.487715 0.165948 
-1.15483 0.448133 0.291809 
-0.854468 0.493603 0.542529 
-0.673214 0.481842 0.874615 
-0.440076 0.49227 0.846322 
-0.232999 0.48966 1.002726 
-0.015565 0.464605 1.165815 
0.836404 0.491816 0.507447 
0.999104 0.491674 0.133928 
1.156575 0.463195 -0.001266 
1.165401 0.453798 0.194674 
1.023151 0.466871 -0.469928 
0.956657 0.443311 -0.721423 
0.804947 0.44385 -0.889556 
0.529487 0.42331 -1.119865 
-0.914901 0.418939 -0.842698 
-1.133879 0.416651 -0.522507 
-1.034835 0.466153 0.515929 
-0.496515 0.473404 1.022544 
0.490088 0.477746 1.001748 
1.08125 0.475515 -0.227471 
1.171203 0.368502 -0.583006 
0.675791 0.239918 -1.237251 
-0.223365 0.413766 -1.230486 
-0.928317 0.273916 -1.033438 
-1.043584 0.227678 0.952695 
-0.647563 0.257231 1.242585 
0.701961 0.433011 0.992521 
0.468443 0.128887 -1.395107 
0.253611 0.22154 -1.399179 
-0.867968 0.177487 1.171735 
-0.474 0.166811 1.377223 
1.032737 0.257682 0.952849 
1.29681 0.204418 0.605658 
1.437973 0.112684 0.251821 
1.436231 0.150034 -0.165923 
1.417807 0.100679 -0.412556 
1.023773 0.021364 -1.061502 
0.614595 0.026474 -1.343304 
0.108677 0.085263 -1.466 
-1.06894 0.131902 -0.995475 
-1.344768 -0.020804 -0.610038 
-1.433876 0.09548 0.315371 
-1.382275 0.038965 0.522838 
-0.876752 -0.021399 1.207432 
-0.688292 0.103522 1.292022 
-0.254736 0.197427 1.407858 
-0.179819 -0.016891 1.46507 
0.637039 -0.168671 -1.296333 
-1.359637 -0.190933 -0.484753 
-1.451363 -0.184971 -0.021622 
-1.449413 -0.048757 0.2639 
-1.401827 -0.145916 0.413875 
-0.275846 -0.213198 1.396306 
-0.70548 -0.114375 1.275277 
-0.077163 -0.257611 1.401154 
0.290978 -0.22048 1.394389 
0.35465 -0.366964 1.264765 
0.594256 -0.37681 -1.154876 
0.226852 -0.376626 -1.283738 
-0.437371 -0.345624 -1.269354 
-0.617061 -0.354933 -1.171352 
-0.956715 -0.3936 -0.855455 
-1.201237 -0.339661 -0.59167 
-1.337418 -0.32331 -0.21464 
-1.226825 -0.410039 0.268727 
-1.067589 -0.458089 0.456107 
-0.902304 -0.323934 1.012695 
-0.208154 -0.392657 1.26831 
0.583522 -0.354594 1.190902 
0.968933 -0.283942 0.986593 
0.826074 -0.428005 0.91136 
1.232055 -0.309731 0.589658 
1.09265 -0.407881 0.6444 
1.357466 -0.279257 0.274481 
1.195162 -0.429124 0.257637 
-1.065448 -0.480358 0.213807 
0.906232 -0.485926 -0.529616 
0.850559 -0.463414 -0.758976 
-0.055536 -0.485638 -1.074544 
-0.99354 -0.495365 -0.106361 
-0.732524 -0.484336 0.781213 
-0.498923 -0.488441 0.893485 
-0.692398 -0.438248 0.995355 
0.194106 -0.464142 1.121486 
0.563511 -0.418151 -0.463847 
0.328936 -0.458488 -0.739924 
0.176191 -0.452538 -0.779443 
-0.097512 -0.476947 0.84858 
0.581883 -0.350768 -0.281378 
-0.62489 -0.34246 -0.129797 
-0.609639 -0.304828 0.006835 
-0.458494 -0.330645 0.428753 
0.392525 -0.075701 -0.322347 
-0.327527 0.126032 0.400656 
-0.305 -0.059866 0.400757 
-0.093902 -0.103767 0.50185 
0.361871 -0.15949 0.387997 
0.496302 -0.191104 0.212 
-0.112312 0.483376 -1.04621 
0.832406 0.478185 0.262888 
1.401087 -0.243591 -0.173928 
-0.101962 -0.38882 -1.281104 
0.513019 -0.481765 -0.726618 
-0.27612 -0.45813 -0.762937 
-0.509091 -0.456762 -0.619769 
-0.730619 -0.484383 0.519721 
0.462342 -0.489975 0.817974 
0.581833 -0.468497 0.627974 
0.820795 0.49185 -0.574773 
0.60113 0.479338 -0.929413 
0.232526 0.49233 -0.949732 
-0.75135 0.482076 -0.761679 
-0.874452 0.471362 0.711294 
0.824148 0.47252 0.786308 
1.031679 0.448063 0.59047 
1.150268 0.312025 -0.751539 
0.852167 0.325797 -1.057015 
1.014972 0.342033 -0.876501 
0.417601 0.327192 -1.2909 
-0.739141 0.318696 -1.14686 
-1.283323 0.282815 -0.522117 
-1.188529 0.297036 -0.689033 
-1.367129 0.276582 -0.221106 
-1.178367 0.242234 0.786085 
-0.834786 0.325471 1.081456 
-0.073904 0.316097 1.364121 
0.54246 0.37863 1.176103 
1.352334 0.286308 -0.274223 
0.994623 -0.160921 -1.048048 
-0.39502 -0.146945 -1.400864 
-1.285039 -0.049644 0.722593 
0.687595 -0.234468 1.239971 
0.955444 -0.337014 -0.939473 
-0.899381 -0.324013 -1.018863 
-1.329645 -0.293528 -0.361644 
-1.290994 -0.331829 0.429153 
-1.05063 -0.289874 0.894342 
-0.732066 -0.326676 1.143963 
-0.378788 -0.377804 1.248814 
0.132322 -0.352266 1.322323 
1.153635 -0.263817 0.794653 
1.284142 -0.381096 -0.167667 
1.109047 -0.423226 -0.540518 
0.744909 -0.435159 -0.973067 
0.108731 -0.454593 -1.170667 
0.345502 -0.451828 -1.12672 
-1.162713 -0.460883 0.026041 
-0.050932 -0.44245 1.207147 
0.709768 -0.486867 -0.585608 
-0.038403 -0.478597 -0.873693 
0.175853 -0.491229 -0.957904 
-0.84903 -0.488665 -0.383451 
-0.935181 -0.492602 0.107882 
-0.853239 -0.487576 0.340428 
-0.619524 -0.485084 0.676856 
0.83919 -0.472803 0.176562 
0.824356 -0.488912 0.435078 
0.699753 0.490165 -0.747996 
0.499333 0.486261 -0.761719 
-0.65834 0.486569 0.673632 
0.830695 0.467487 0.073361 
1.025442 0.2029 -0.99247 
-0.232418 0.24826 -1.38786 
-1.197365 0.341994 0.585264 
0.752353 0.285325 1.167682 
1.115151 0.106932 0.953379 
-0.712238 0.022619 -1.295412 
-0.956611 0.049855 -1.120155 
-1.005294 -0.106887 -1.061088 
-0.556856 -0.027146 1.372496 
0.52969 -0.201802 1.327591 
-1.46283 -0.086799 0.113023 
0.242906 -0.233981 -1.394669 
0.528723 -0.474502 -0.981677 
-0.774392 -0.458859 -0.862552 
-0.437465 -0.496654 -0.866198 
0.012814 -0.490072 1.038217 
0.910286 -0.489072 -0.177202 
-0.545393 0.484973 -0.721181 
-0.796304 0.472763 -0.272615 
-0.86021 0.475131 -0.109011 
-0.842363 0.466113 0.111086 
-0.216043 0.448758 0.761773 
0.339649 0.475385 0.797975 
0.689823 0.485765 0.609661 
1.182842 0.423495 -0.361568 
0.700387 0.411908 -1.052417 
-0.054654 0.407179 -1.268286 
-0.546195 0.42791 -1.102362 
-0.78927 0.414155 -0.976848 
-0.882881 0.412574 0.889643 
-0.687966 0.413021 1.056873 
-0.204322 0.428926 1.209342 
0.142187 0.365819 1.300103 
1.26916 0.400211 -0.145092 
1.170946 0.278426 0.752309 
1.43304 0.196978 0.100825 
0.763309 -0.014517 -1.265154 
0.254549 -0.042666 -1.449623 
-0.103976 0.078051 -1.467552 
-1.258499 0.006587 -0.764157 
-1.414336 0.17031 -0.325604 
-1.448403 0.140496 0.118539 
1.240822 0.085178 0.792536 
-1.440594 -0.091371 -0.265343 
-1.156165 -0.108507 0.909956 
-0.381756 -0.012667 1.43488 
0.182954 -0.013111 1.459321 
0.780648 -0.276831 -1.160907 
-1.320277 -0.183681 0.56705 
0.105826 -0.203456 1.431539 
-1.331898 -0.358393 0.0276 
-0.893916 -0.432171 0.833988 
0.614305 -0.453681 1.001461 
1.086774 -0.452873 0.460026 
-0.885018 -0.48798 0.566156 
0.362448 -0.492479 -0.913901 
0.484793 -0.060113 -0.130622 
1.005822 0.48956 0.327655 
-0.680499 0.376237 -0.020488 
0.103085 -0.012878 -0.493938 
0.498642 -0.02401 0.064655 
0.173824 0.170264 -0.503871 
0.296405 0.403182 0.63709 
1.311074 0.348941 0.229262 
1.135873 0.021997 -0.94426 
1.022827 -0.489569 0.022878 
-0.644117 -0.491512 -0.709287 
-1.195298 -0.345082 0.594989 
1.220644 0.354764 0.523682 
-1.215494 0.051354 0.849468 
-0.243905 -0.478374 1.065972 
-0.202435 -0.41348 0.693905 
-0.814943 0.140524 -1.216815 
0.305268 -0.493028 0.907096 
-1.308694 0.162082 -0.626299 
0.647313 -0.049492 1.320977 
0.524089 -0.375546 0.429251 
0.117845 0.412789 0.715358 
0.165818 0.461334 1.129272 
0.881393 0.340051 1.011871 
-1.150292 -0.041969 -0.926729 
-0.439103 -0.133424 0.291208 
-1.292879 0.157057 0.647039 
0.301285 0.45526 -1.125365 
1.25213 -0.141728 0.726957 
1.143085 -0.204681 -0.858374 
-0.269868 -0.05008 -1.444802 
-1.204161 -0.412291 -0.370972 
-1.227854 0.422241 -0.169188 
-0.308924 0.347233 1.296351 
1.350364 -0.334024 0.069939 
0.519889 0.087629 1.377411 
-0.074199 0.436901 0.770575 
0.628533 0.32993 0.008395 
-1.058833 0.04538 1.019946 
1.456422 -0.031402 -0.217498 
-0.574568 -0.246353 1.289095 
-0.342885 -0.488263 0.917517 
0.56159 0.48848 0.830056 
0.179955 0.232246 1.403919 
-0.336136 0.08461 -1.430929 
1.477235 0.041078 0.064715 
3 170 4 7 
3 171 10 90 
3 77 295 153 
3 420 155 424 
3 166 180 181 
3 7 4 187 
3 4 87 187 
3 187 87 198 
3 7 187 382 
3 384 422 383 
3 15 89 88 
3 10 89 90 
3 90 89 362 
3 361 185 360 
3 89 15 362 
3 131 60 63 
3 305 287 145 
3 146 307 306 
3 140 307 71 
3 67 354 141 
3 141 140 71 
3 72 142 293 
3 308 73 143 
3 148 143 294 
3 294 143 73 
3 74 138 150 
3 440 310 75 
3 153 70 145 
3 139 70 78 
3 78 70 153 
3 154 146 79 
3 71 146 157 
3 147 71 157 
3 73 72 80 
3 149 148 81 
3 74 150 82 
3 300 76 440 
3 145 77 153 
3 79 78 156 
3 161 154 156 
3 154 79 156 
3 80 293 159 
3 445 80 159 
3 81 294 445 
3 149 81 298 
3 300 440 299 
3 1 158 163 
3 445 159 2 
3 2 159 1 
3 166 299 84 
3 85 0 168 
3 161 160 162 
3 162 160 178 
3 163 161 162 
3 1 163 170 
3 296 2 9 
3 179 164 171 
3 179 165 164 
3 180 165 179 
3 3 166 5 
3 5 166 181 
3 167 3 5 
3 6 424 167 
3 424 3 167 
3 169 168 184 
3 85 168 169 
3 174 175 169 
3 178 160 177 
3 177 160 176 
3 1 170 8 
3 170 163 162 
3 8 170 422 
3 422 170 7 
3 9 2 8 
3 2 1 8 
3 9 8 88 
3 10 296 9 
3 164 296 171 
3 179 171 456 
3 167 5 183 
3 183 5 182 
3 169 184 172 
3 172 184 173 
3 175 85 169 
3 174 169 172 
3 425 85 175 
3 176 175 11 
3 177 176 13 
3 178 177 186 
3 186 177 13 
3 87 178 86 
3 88 8 422 
3 384 88 422 
3 89 9 88 
3 10 9 89 
3 296 10 171 
3 385 171 90 
3 180 179 441 
3 181 180 426 
3 5 181 182 
3 182 181 188 
3 188 181 426 
3 167 183 457 
3 184 6 457 
3 173 184 457 
3 172 173 12 
3 174 172 185 
3 174 185 361 
3 185 172 12 
3 175 174 11 
3 178 186 86 
3 86 186 14 
3 14 186 13 
3 198 87 381 
3 87 86 381 
3 383 7 382 
3 188 426 386 
3 182 188 387 
3 302 183 182 
3 363 183 302 
3 173 457 363 
3 381 86 196 
3 302 182 209 
3 361 360 312 
3 196 14 17 
3 206 362 205 
3 225 301 390 
3 216 389 224 
3 31 23 365 
3 225 390 365 
3 218 18 324 
3 203 19 98 
3 33 394 228 
3 230 224 240 
3 241 231 401 
3 242 226 370 
3 108 406 448 
3 402 114 53 
3 404 36 407 
3 405 37 374 
3 107 50 272 
3 264 336 377 
3 267 119 414 
3 413 257 342 
3 122 57 345 
3 335 280 346 
3 417 275 135 
3 289 353 419 
3 140 63 430 
3 141 354 140 
3 72 355 142 
3 73 356 72 
3 144 357 143 
3 429 65 358 
3 130 429 380 
3 351 66 287 
3 145 287 77 
3 289 288 70 
3 70 288 145 
3 288 305 145 
3 352 289 139 
3 139 289 70 
3 146 306 79 
3 71 307 146 
3 138 290 150 
3 150 290 435 
3 290 461 435 
3 69 68 151 
3 287 66 291 
3 66 69 291 
3 77 287 291 
3 79 139 78 
3 157 146 154 
3 141 71 147 
3 293 142 292 
3 142 67 292 
3 292 67 141 
3 158 292 147 
3 72 293 80 
3 144 143 148 
3 81 148 294 
3 294 73 80 
3 83 74 82 
3 75 74 83 
3 77 291 152 
3 82 150 149 
3 83 82 84 
3 299 83 84 
3 151 76 300 
3 152 69 155 
3 77 152 295 
3 295 152 420 
3 153 295 0 
3 0 295 168 
3 168 295 420 
3 78 153 423 
3 156 78 423 
3 176 160 425 
3 161 156 160 
3 163 157 161 
3 159 158 1 
3 81 445 297 
3 298 81 297 
3 82 149 298 
3 165 298 164 
3 164 298 297 
3 84 82 298 
3 84 298 165 
3 3 299 166 
3 155 300 424 
3 6 420 424 
3 168 420 6 
3 420 152 155 
3 11 361 193 
3 315 393 205 
3 397 34 330 
3 366 32 446 
3 329 102 367 
3 455 44 439 
3 439 373 334 
3 371 336 117 
3 120 339 269 
3 121 122 345 
3 124 304 281 
3 344 129 130 
3 354 131 63 
3 136 351 305 
3 137 352 306 
3 309 437 75 
3 198 381 314 
3 16 441 191 
3 12 189 311 
3 194 313 447 
3 213 388 223 
3 215 320 319 
3 220 394 33 
3 221 329 229 
3 319 320 364 
3 195 321 231 
3 46 95 111 
3 224 400 240 
3 242 370 371 
3 244 405 253 
3 446 245 333 
3 249 255 257 
3 238 237 459 
3 250 411 260 
3 54 412 431 
3 258 413 342 
3 45 303 122 
3 269 339 415 
3 255 341 270 
3 274 343 275 
3 303 344 122 
3 269 415 285 
3 273 132 134 
3 280 351 136 
3 281 352 137 
3 127 282 349 
3 356 308 418 
3 286 379 138 
3 310 134 132 
3 352 353 289 
3 282 67 142 
3 357 308 143 
3 434 461 290 
3 358 359 76 
3 174 361 11 
3 313 11 193 
3 13 301 14 
3 14 301 17 
3 194 301 13 
3 90 362 206 
3 302 421 210 
3 173 192 189 
3 393 394 205 
3 427 22 92 
3 317 398 432 
3 235 92 432 
3 91 398 317 
3 397 30 34 
3 318 95 93 
3 319 364 96 
3 96 224 319 
3 365 97 402 
3 322 101 436 
3 436 226 322 
3 36 404 323 
3 37 405 26 
3 38 463 328 
3 102 103 367 
3 436 369 42 
3 100 367 103 
3 439 103 102 
3 406 368 104 
3 107 368 100 
3 100 103 107 
3 237 465 52 
3 115 369 105 
3 332 115 105 
3 409 372 106 
3 103 439 50 
3 334 50 439 
3 107 104 368 
3 50 107 103 
3 343 448 104 
3 459 237 52 
3 111 122 121 
3 121 449 46 
3 41 250 112 
3 260 112 250 
3 115 47 42 
3 47 263 59 
3 263 47 115 
3 262 115 332 
3 48 117 116 
3 371 47 336 
3 59 336 47 
3 265 251 118 
3 116 118 48 
3 407 337 266 
3 252 266 414 
3 253 374 119 
3 454 303 52 
3 303 454 344 
3 345 58 121 
3 449 121 58 
3 53 114 123 
3 261 123 375 
3 260 346 376 
3 262 124 125 
3 113 304 124 
3 137 125 124 
3 281 137 124 
3 347 304 123 
3 304 347 281 
3 263 125 126 
3 63 60 264 
3 377 63 264 
3 126 377 59 
3 265 60 131 
3 270 341 434 
3 128 340 285 
3 285 284 128 
3 130 57 344 
3 430 126 378 
3 430 377 126 
3 354 64 131 
3 309 132 416 
3 359 65 417 
3 134 135 56 
3 351 279 66 
3 279 62 66 
3 419 288 289 
3 288 419 305 
3 306 352 139 
3 307 430 378 
3 307 378 306 
3 378 137 306 
3 461 284 144 
3 379 290 138 
3 290 379 434 
3 132 309 310 
3 75 437 74 
3 135 310 359 
3 69 66 380 
3 380 429 68 
3 4 170 162 
3 165 166 84 
3 185 12 311 
3 311 189 213 
3 381 196 197 
3 86 14 196 
3 187 198 199 
3 383 201 384 
3 382 200 383 
3 188 386 462 
3 188 462 387 
3 182 387 209 
3 302 209 421 
3 363 302 210 
3 189 192 222 
3 213 214 311 
3 360 311 214 
3 311 360 185 
3 215 312 360 
3 214 215 360 
3 312 193 361 
3 312 216 193 
3 194 447 195 
3 391 197 196 
3 196 17 391 
3 314 18 198 
3 314 217 18 
3 197 314 381 
3 314 197 392 
3 218 200 199 
3 18 199 198 
3 200 201 383 
3 452 19 201 
3 200 452 201 
3 201 202 384 
3 19 202 201 
3 219 204 190 
3 219 315 204 
3 219 203 27 
3 315 205 362 
3 207 206 220 
3 220 20 207 
3 205 220 206 
3 220 205 394 
3 395 208 207 
3 207 20 395 
3 16 442 21 
3 208 442 191 
3 442 208 396 
3 221 386 16 
3 221 21 329 
3 21 221 16 
3 209 316 317 
3 316 209 387 
3 462 316 387 
3 316 462 229 
3 421 317 22 
3 317 421 209 
3 192 210 211 
3 210 192 363 
3 212 211 210 
3 22 212 421 
3 192 211 222 
3 223 214 213 
3 312 215 389 
3 319 389 215 
3 215 214 320 
3 312 389 216 
3 194 195 390 
3 195 447 321 
3 17 301 225 
3 17 225 23 
3 301 194 390 
3 197 391 322 
3 23 391 17 
3 314 392 217 
3 18 217 24 
3 199 18 218 
3 200 218 25 
3 25 452 200 
3 202 19 203 
3 315 219 28 
3 366 28 219 
3 27 366 219 
3 28 393 315 
3 20 33 453 
3 33 20 220 
3 208 395 328 
3 453 395 20 
3 329 21 29 
3 462 221 229 
3 317 316 91 
3 443 91 316 
3 443 229 367 
3 22 317 432 
3 211 212 30 
3 427 30 212 
3 212 22 427 
3 222 211 397 
3 30 397 211 
3 318 214 223 
3 318 223 95 
3 388 94 223 
3 223 94 95 
3 318 93 320 
3 224 321 216 
3 319 224 389 
3 97 390 195 
3 231 97 195 
3 365 23 225 
3 97 365 390 
3 322 392 197 
3 101 322 391 
3 391 23 101 
3 31 101 23 
3 392 226 217 
3 322 226 392 
3 323 25 218 
3 324 438 323 
3 18 24 324 
3 35 324 24 
3 26 452 325 
3 452 25 325 
3 325 25 404 
3 323 404 25 
3 98 27 203 
3 27 98 32 
3 19 26 98 
3 326 366 446 
3 366 326 28 
3 32 366 27 
3 327 394 393 
3 327 393 227 
3 393 28 227 
3 327 228 394 
3 328 396 208 
3 328 453 248 
3 33 233 453 
3 29 396 463 
3 396 29 21 
3 328 463 396 
3 329 29 102 
3 93 364 320 
3 97 231 241 
3 230 231 321 
3 24 226 242 
3 242 35 24 
3 327 227 232 
3 458 232 227 
3 228 232 247 
3 232 228 327 
3 328 248 38 
3 233 248 453 
3 29 463 99 
3 91 234 398 
3 91 443 234 
3 398 368 406 
3 368 398 234 
3 100 368 234 
3 100 234 443 
3 432 398 235 
3 92 235 39 
3 237 399 465 
3 399 34 30 
3 427 399 30 
3 399 427 236 
3 39 236 92 
3 237 330 34 
3 94 330 238 
3 330 237 238 
3 399 237 34 
3 46 93 95 
3 111 95 238 
3 239 96 364 
3 40 239 331 
3 230 240 41 
3 224 230 321 
3 224 96 400 
3 40 400 96 
3 402 97 241 
3 231 230 401 
3 41 401 230 
3 31 365 464 
3 365 402 464 
3 464 450 332 
3 114 402 241 
3 464 105 31 
3 35 242 444 
3 371 444 242 
3 226 436 370 
3 42 370 436 
3 243 36 438 
3 438 403 243 
3 444 403 35 
3 325 404 37 
3 32 244 245 
3 244 32 98 
3 98 405 244 
3 253 254 244 
3 326 446 433 
3 232 458 246 
3 433 227 326 
3 233 372 409 
3 372 233 247 
3 256 372 247 
3 246 247 232 
3 247 246 256 
3 249 43 38 
3 409 248 233 
3 99 463 410 
3 463 38 410 
3 43 410 38 
3 108 39 235 
3 235 406 108 
3 406 235 398 
3 406 104 448 
3 236 109 465 
3 236 39 110 
3 111 45 122 
3 239 40 96 
3 40 331 411 
3 250 41 240 
3 240 400 250 
3 400 40 411 
3 411 250 400 
3 401 114 241 
3 401 41 375 
3 332 105 464 
3 53 450 402 
3 370 42 371 
3 47 371 42 
3 36 243 251 
3 243 403 118 
3 118 251 243 
3 403 48 118 
3 48 403 444 
3 37 407 252 
3 407 37 404 
3 266 252 407 
3 251 407 36 
3 407 251 337 
3 245 244 254 
3 374 253 405 
3 119 254 253 
3 252 374 37 
3 412 333 245 
3 254 412 245 
3 120 246 458 
3 458 408 120 
3 433 458 227 
3 246 120 49 
3 49 256 246 
3 257 43 249 
3 249 409 255 
3 409 249 248 
3 409 106 255 
3 257 413 43 
3 110 108 51 
3 236 110 109 
3 465 109 52 
3 45 111 238 
3 331 449 335 
3 375 114 401 
3 114 375 123 
3 112 375 41 
3 374 252 119 
3 414 119 252 
3 333 412 54 
3 119 338 254 
3 339 120 408 
3 49 269 340 
3 269 49 120 
3 106 460 341 
3 340 256 49 
3 341 255 106 
3 258 44 410 
3 410 413 258 
3 50 334 55 
3 258 259 373 
3 272 104 107 
3 343 272 56 
3 272 343 104 
3 55 272 50 
3 343 274 448 
3 274 51 108 
3 52 109 454 
3 276 109 110 
3 276 454 109 
3 303 45 459 
3 411 335 346 
3 335 58 280 
3 58 335 449 
3 112 260 348 
3 346 260 411 
3 375 112 261 
3 348 261 112 
3 304 113 53 
3 124 262 113 
3 123 304 53 
3 262 263 115 
3 59 263 126 
3 263 262 125 
3 264 116 117 
3 117 336 264 
3 116 264 60 
3 336 59 377 
3 337 265 451 
3 118 116 265 
3 60 265 116 
3 414 127 349 
3 127 414 266 
3 267 338 119 
3 338 431 412 
3 61 54 431 
3 268 61 431 
3 340 269 285 
3 339 61 415 
3 61 339 54 
3 340 460 256 
3 128 341 460 
3 342 259 258 
3 342 286 259 
3 342 350 286 
3 350 342 257 
3 271 55 334 
3 334 373 271 
3 416 55 271 
3 133 416 271 
3 273 56 272 
3 272 55 273 
3 417 51 274 
3 343 56 275 
3 277 129 454 
3 122 344 57 
3 129 344 454 
3 58 345 279 
3 345 57 62 
3 346 280 136 
3 376 348 260 
3 347 123 261 
3 348 347 261 
3 267 349 278 
3 349 267 414 
3 61 268 418 
3 285 415 283 
3 415 61 418 
3 286 350 379 
3 56 273 134 
3 273 416 132 
3 416 273 55 
3 275 56 135 
3 129 277 65 
3 417 277 51 
3 58 279 280 
3 345 62 279 
3 346 136 376 
3 376 136 305 
3 279 351 280 
3 419 348 376 
3 305 419 376 
3 353 281 347 
3 137 378 125 
3 127 64 282 
3 355 349 282 
3 267 278 268 
3 355 278 349 
3 278 356 268 
3 285 283 284 
3 415 418 283 
3 357 284 283 
3 434 379 350 
3 259 286 133 
3 310 135 134 
3 57 130 62 
3 130 129 429 
3 305 351 287 
3 352 281 353 
3 64 354 67 
3 354 63 140 
3 282 142 355 
3 67 282 64 
3 278 355 356 
3 356 355 72 
3 308 356 73 
3 284 357 144 
3 357 283 308 
3 358 65 359 
3 429 358 68 
3 62 380 66 
3 380 62 130 
3 68 69 380 
3 457 183 363 
3 164 297 296 
3 173 363 192 
3 166 165 180 
3 13 11 313 
3 63 377 430 
3 423 153 0 
3 296 297 2 
3 309 416 133 
3 359 417 135 
3 210 421 212 
3 270 434 350 
3 353 347 348 
3 308 283 418 
3 138 437 286 
3 447 313 193 
3 270 350 257 
3 419 353 348 
3 148 435 144 
3 160 423 425 
3 12 173 189 
3 306 139 79 
3 69 151 155 
3 291 69 152 
3 163 158 157 
3 85 425 0 
3 156 423 160 
3 162 178 4 
3 175 176 425 
3 13 176 11 
3 426 180 441 
3 382 187 199 
3 239 364 428 
3 140 430 307 
3 435 461 144 
3 292 141 147 
3 423 0 425 
3 15 190 204 
3 268 338 267 
3 271 373 259 
3 432 92 22 
3 26 325 37 
3 51 276 110 
3 337 251 265 
3 460 340 128 
3 126 125 378 
3 65 277 417 
3 13 313 194 
3 382 199 200 
3 362 15 204 
3 193 216 447 
3 397 388 222 
3 369 31 105 
3 427 92 236 
3 31 369 101 
3 333 433 446 
3 99 410 44 
3 433 333 408 
3 54 339 408 
3 54 408 333 
3 338 412 254 
3 258 373 44 
3 113 262 332 
3 270 257 255 
3 271 259 133 
3 275 417 274 
3 276 51 277 
3 434 128 461 
3 315 362 204 
3 435 148 149 
3 383 422 7 
3 445 294 80 
3 157 154 161 
3 158 147 157 
3 330 94 388 
3 42 369 115 
3 437 138 74 
3 190 384 202 
3 219 190 203 
3 447 216 321 
3 397 330 388 
3 318 320 214 
3 226 24 217 
3 438 35 403 
3 405 98 26 
3 329 367 229 
3 102 29 455 
3 455 29 99 
3 93 46 428 
3 249 38 248 
3 331 239 428 
3 410 43 413 
3 303 459 52 
3 437 133 286 
3 133 437 309 
3 428 364 93 
3 149 150 435 
3 431 338 268 
3 323 438 36 
3 369 436 101 
3 438 324 35 
3 46 111 121 
3 385 90 206 
3 439 44 373 
3 83 440 75 
3 386 426 441 
3 213 189 222 
3 21 442 396 
3 48 444 117 
3 440 76 310 
3 299 440 83 
3 151 300 155 
3 297 445 2 
3 102 455 439 
3 16 191 442 
3 228 247 233 
3 108 448 274 
3 356 418 268 
3 385 206 207 
3 446 32 245 
3 46 449 428 
3 444 371 117 
3 332 450 113 
3 127 451 64 
3 341 128 434 
3 64 451 131 
3 88 384 190 
3 19 452 26 
3 324 323 218 
3 453 328 395 
3 326 227 28 
3 228 233 33 
3 100 443 367 
3 238 95 94 
3 450 53 113 
3 449 331 428 
3 451 265 131 
3 277 454 276 
3 386 441 16 
3 213 222 388 
3 229 443 316 
3 190 202 203 
3 455 99 44 
3 151 358 76 
3 151 68 358 
3 184 168 6 
3 456 171 385 
3 457 6 167 
3 179 456 441 
3 458 433 408 
3 293 292 158 
3 159 293 158 
3 300 299 3 
3 424 300 3 
3 238 459 45 
3 266 337 451 
3 256 460 372 
3 331 335 411 
3 127 266 451 
3 284 461 128 
3 65 429 129 
3 310 309 75 
3 441 456 191 
3 385 207 456 
3 191 456 207 
3 191 207 208 
3 221 462 386 
3 464 402 450 
3 236 465 399 
3 108 110 39 
3 460 106 372 
3 4 178 87 
3 76 359 310 
3 88 190 15 
