{"asset":{"version":"2.0","generator":"babylon.js glTF exporter for Autodesk Maya 2018.7 v20240312.5"},"scene":0,"scenes":[{"nodes":[0,1]}],"nodes":[{"mesh":0,"name":"HingeA1:pCylinder8group12group9group12group1"},{"mesh":1,"name":"HingeB1:pCylinder7group1"}],"meshes":[{"primitives":[{"attributes":{"POSITION":1,"TANGENT":2,"NORMAL":3,"TEXCOORD_0":4},"indices":0,"material":0}],"name":"HingeA1:pCylinder8group12group9group12group1"},{"primitives":[{"attributes":{"POSITION":6,"TANGENT":7,"NORMAL":8,"TEXCOORD_0":9},"indices":5,"material":0}],"name":"HingeB1:pCylinder7group1"}],"accessors":[{"bufferView":0,"componentType":5123,"count":1416,"type":"SCALAR","name":"accessorIndices"},{"bufferView":1,"componentType":5126,"count":488,"max":[0.047442,0.503843665,0.172712],"min":[-0.047442,-0.0281463545,-0.172712],"type":"VEC3","name":"accessorPositions"},{"bufferView":2,"componentType":5126,"count":488,"type":"VEC4","name":"accessorTangents"},{"bufferView":1,"byteOffset":5856,"componentType":5126,"count":488,"type":"VEC3","name":"accessorNormals"},{"bufferView":3,"componentType":5126,"count":488,"type":"VEC2","name":"accessorUVs"},{"bufferView":0,"byteOffset":2832,"componentType":5123,"count":1896,"type":"SCALAR","name":"accessorIndices"},{"bufferView":1,"byteOffset":11712,"componentType":5126,"count":654,"max":[0.0468429923,0.0297636427,0.172244981],"min":[-0.0480109975,-0.5014424,-0.172244981],"type":"VEC3","name":"accessorPositions"},{"bufferView":2,"byteOffset":7808,"componentType":5126,"count":654,"type":"VEC4","name":"accessorTangents"},{"bufferView":1,"byteOffset":19560,"componentType":5126,"count":654,"type":"VEC3","name":"accessorNormals"},{"bufferView":3,"byteOffset":3904,"componentType":5126,"count":654,"type":"VEC2","name":"accessorUVs"}],"bufferViews":[{"buffer":0,"byteLength":6624,"name":"bufferViewScalar"},{"buffer":0,"byteOffset":6624,"byteLength":27408,"byteStride":12,"name":"bufferViewFloatVec3"},{"buffer":0,"byteOffset":34032,"byteLength":18272,"byteStride":16,"name":"bufferViewFloatVec4"},{"buffer":0,"byteOffset":52304,"byteLength":9136,"byteStride":8,"name":"bufferViewFloatVec2"}],"buffers":[{"uri":"Hinge.bin","byteLength":61440}],"materials":[{"pbrMetallicRoughness":{"baseColorTexture":{"index":0},"metallicFactor":0.0,"roughnessFactor":0.450053632},"name":"lambert6"}],"textures":[{"sampler":0,"source":0,"name":"color.png"}],"images":[{"uri":"color.png"}],"samplers":[{"magFilter":9729,"minFilter":9987}]}