{"asset":{"version":"2.0","generator":"babylon.js glTF exporter for Autodesk Maya 2018.7 v20240312.5"},"scene":0,"scenes":[{"nodes":[0,1,2]}],"nodes":[{"mesh":0,"translation":[0.041078724,0.0,0.0],"scale":[100.0,100.0,100.0],"name":"Slide_Inner_v2:Mesh"},{"mesh":1,"scale":[100.0,100.0,100.0],"name":"Slide_Outer_v2:polySurface1"},{"camera":0,"translation":[0.0410057232,10.0010843,2.22068682E-15],"rotation":[-0.707106769,0.0,0.0,0.707106769],"name":"top1"}],"cameras":[{"perspective":{"yfov":0.6605947,"zfar":1000000.0,"znear":0.01},"type":"perspective","name":"top1"}],"meshes":[{"primitives":[{"attributes":{"POSITION":1,"TANGENT":2,"NORMAL":3,"TEXCOORD_0":4},"indices":0,"material":0}],"name":"Slide_Inner_v2:Mesh"},{"primitives":[{"attributes":{"POSITION":6,"TANGENT":7,"NORMAL":8,"TEXCOORD_0":9},"indices":5,"material":0}],"name":"Slide_Outer_v2:polySurface1"}],"accessors":[{"bufferView":0,"componentType":5123,"count":528,"type":"SCALAR","name":"accessorIndices"},{"bufferView":1,"componentType":5126,"count":154,"max":[0.00078298,0.00153235,0.000377889985],"min":[-0.000784439966,-0.00153235,-0.000377889985],"type":"VEC3","name":"accessorPositions"},{"bufferView":2,"componentType":5126,"count":154,"type":"VEC4","name":"accessorTangents"},{"bufferView":1,"byteOffset":1848,"componentType":5126,"count":154,"type":"VEC3","name":"accessorNormals"},{"bufferView":3,"componentType":5126,"count":154,"type":"VEC2","name":"accessorUVs"},{"bufferView":0,"byteOffset":1056,"componentType":5123,"count":972,"type":"SCALAR","name":"accessorIndices"},{"bufferView":1,"byteOffset":3696,"componentType":5126,"count":508,"max":[0.00059673,0.00426162,0.00059673],"min":[-0.00059673,-0.00426162,-0.00059673],"type":"VEC3","name":"accessorPositions"},{"bufferView":2,"byteOffset":2464,"componentType":5126,"count":508,"type":"VEC4","name":"accessorTangents"},{"bufferView":1,"byteOffset":9792,"componentType":5126,"count":508,"type":"VEC3","name":"accessorNormals"},{"bufferView":3,"byteOffset":1232,"componentType":5126,"count":508,"type":"VEC2","name":"accessorUVs"}],"bufferViews":[{"buffer":0,"byteLength":3000,"name":"bufferViewScalar"},{"buffer":0,"byteOffset":3000,"byteLength":15888,"byteStride":12,"name":"bufferViewFloatVec3"},{"buffer":0,"byteOffset":18888,"byteLength":10592,"byteStride":16,"name":"bufferViewFloatVec4"},{"buffer":0,"byteOffset":29480,"byteLength":5296,"byteStride":8,"name":"bufferViewFloatVec2"}],"buffers":[{"uri":"Slider.bin","byteLength":34776}],"materials":[{"pbrMetallicRoughness":{"baseColorTexture":{"index":0},"metallicFactor":0.0,"roughnessFactor":0.450053632},"name":"lambert8"}],"textures":[{"sampler":0,"source":0,"name":"color.png"}],"images":[{"uri":"color.png"}],"samplers":[{"magFilter":9729,"minFilter":9987}]}