{"asset":{"version":"2.0","generator":"babylon.js glTF exporter for Autodesk Maya 2018.7 v20240312.5"},"scene":0,"scenes":[{"nodes":[0,1]}],"nodes":[{"mesh":0,"name":"Spherical_Inner_v2:pSphere8group1"},{"mesh":1,"name":"Spherical_outer:pSphere6group1"}],"meshes":[{"primitives":[{"attributes":{"POSITION":1,"TANGENT":2,"NORMAL":3,"TEXCOORD_0":4},"indices":0,"material":0}],"name":"Spherical_Inner_v2:pSphere8group1"},{"primitives":[{"attributes":{"POSITION":6,"TANGENT":7,"NORMAL":8,"TEXCOORD_0":9},"indices":5,"material":0}],"name":"Spherical_outer:pSphere6group1"}],"accessors":[{"bufferView":0,"componentType":5123,"count":2970,"type":"SCALAR","name":"accessorIndices"},{"bufferView":1,"componentType":5126,"count":789,"max":[0.07957799,0.481131047,0.07957799],"min":[-0.07957799,-0.06906895,-0.07957799],"type":"VEC3","name":"accessorPositions"},{"bufferView":2,"componentType":5126,"count":789,"type":"VEC4","name":"accessorTangents"},{"bufferView":1,"byteOffset":9468,"componentType":5126,"count":789,"type":"VEC3","name":"accessorNormals"},{"bufferView":3,"componentType":5126,"count":789,"type":"VEC2","name":"accessorUVs"},{"bufferView":0,"byteOffset":5940,"componentType":5123,"count":2034,"type":"SCALAR","name":"accessorIndices"},{"bufferView":1,"byteOffset":18936,"componentType":5126,"count":498,"max":[0.093042,0.000432893634,0.093042],"min":[-0.093042,-0.548746049,-0.093042],"type":"VEC3","name":"accessorPositions"},{"bufferView":2,"byteOffset":12624,"componentType":5126,"count":498,"type":"VEC4","name":"accessorTangents"},{"bufferView":1,"byteOffset":24912,"componentType":5126,"count":498,"type":"VEC3","name":"accessorNormals"},{"bufferView":3,"byteOffset":6312,"componentType":5126,"count":498,"type":"VEC2","name":"accessorUVs"}],"bufferViews":[{"buffer":0,"byteLength":10008,"name":"bufferViewScalar"},{"buffer":0,"byteOffset":10008,"byteLength":30888,"byteStride":12,"name":"bufferViewFloatVec3"},{"buffer":0,"byteOffset":40896,"byteLength":20592,"byteStride":16,"name":"bufferViewFloatVec4"},{"buffer":0,"byteOffset":61488,"byteLength":10296,"byteStride":8,"name":"bufferViewFloatVec2"}],"buffers":[{"uri":"Spherical.bin","byteLength":71784}],"materials":[{"pbrMetallicRoughness":{"baseColorTexture":{"index":0},"metallicFactor":0.0,"roughnessFactor":0.450053632},"name":"lambert4"}],"textures":[{"sampler":0,"source":0,"name":"color.png"}],"images":[{"uri":"color.png"}],"samplers":[{"magFilter":9729,"minFilter":9987}]}