# WaveFront *.obj file (generated by CINEMA 4D)

mtllib ./cube21.mtl

v -1.25873184204102 -0.62405771017075 -1.26271235942841
v -1.43486678600311 1.17612791061401 -0.68651241064072
v 0.07723785191774 -0.67310386896133 -0.70109629631042
v -0.09889709949493 1.12708175182343 -0.12489628791809
v -0.52455335855484 -1.17612791061401 0.68651241064072
v -0.70068836212158 0.62405771017075 1.26271235942841
v -1.86052298545837 -1.12708175182343 0.12489628791809
v -2.03665804862976 0.67310386896133 0.70109629631042
# 8 vertices

vn 0.37754365801811 0.31557288765907 -0.87055993080139
vn 0.92133700847626 -0.0338133983314 0.38729155063629
vn -0.37754365801811 -0.31557288765907 0.87055993080139
vn -0.92133700847626 0.0338133983314 -0.38729155063629
vn -0.09278319776058 0.94830119609833 0.30350640416145
vn 0.09278319776058 -0.94830119609833 -0.30350640416145
# 6 normals

vt 0 0 0
vt 0 1 0
vt 1 1 0
vt 1 0 0
# 4 texture coordinates

o 立方体
usemtl default
f 1/1/1 2/2/1 4/3/1 3/4/1
f 3/1/2 4/2/2 6/3/2 5/4/2
f 5/1/3 6/2/3 8/3/3 7/4/3
f 7/1/4 8/2/4 2/3/4 1/4/4
f 2/1/5 8/2/5 6/3/5 4/4/5
f 7/1/6 1/2/6 3/3/6 5/4/6

