# WaveFront *.obj file (generated by CINEMA 4D)

mtllib ./cube1.mtl

v 0.41554790735245 -0.94917047023773 -0.79696983098984
v 0.41554790735245 0.94917047023773 -0.79696983098984
v 1.865593791008 -0.94917047023773 -0.79696983098984
v 1.865593791008 0.94917047023773 -0.79696983098984
v 1.865593791008 -0.94917047023773 0.79696983098984
v 1.865593791008 0.94917047023773 0.79696983098984
v 0.41554790735245 -0.94917047023773 0.79696983098984
v 0.41554790735245 0.94917047023773 0.79696983098984
# 8 vertices

vn 0 0 -1
vn 1 0 0
vn 0 0 1
vn -1 0 0
vn 0 1 0
vn 0 -1 0
# 6 normals

vt 0 0 0
vt 0 1 0
vt 1 1 0
vt 1 0 0
# 4 texture coordinates

o 立方体.1
usemtl default
f 1/1/1 2/2/1 4/3/1 3/4/1
f 3/1/2 4/2/2 6/3/2 5/4/2
f 5/1/3 6/2/3 8/3/3 7/4/3
f 7/1/4 8/2/4 2/3/4 1/4/4
f 2/1/5 8/2/5 6/3/5 4/4/5
f 7/1/6 1/2/6 3/3/6 5/4/6

v -1.70473301410675 -0.94917047023773 -0.79696983098984
v -1.70473301410675 0.94917047023773 -0.79696983098984
v -0.2546871304512 -0.94917047023773 -0.79696983098984
v -0.2546871304512 0.94917047023773 -0.79696983098984
v -0.2546871304512 -0.94917047023773 0.79696983098984
v -0.2546871304512 0.94917047023773 0.79696983098984
v -1.70473301410675 -0.94917047023773 0.79696983098984
v -1.70473301410675 0.94917047023773 0.79696983098984
# 8 vertices

# 0 normal

# 0 texture coordinate

o 立方体
usemtl default
f 9/1/1 10/2/1 12/3/1 11/4/1
f 11/1/2 12/2/2 14/3/2 13/4/2
f 13/1/3 14/2/3 16/3/3 15/4/3
f 15/1/4 16/2/4 10/3/4 9/4/4
f 10/1/5 16/2/5 14/3/5 12/4/5
f 15/1/6 9/2/6 11/3/6 13/4/6

