{"asset":{"version":"2.0","generator":"babylon.js glTF exporter for Autodesk Maya 2018.7 v20240312.5"},"scene":0,"scenes":[{"nodes":[0]}],"nodes":[{"children":[1,2,3,4],"name":"Geo"},{"mesh":0,"name":"Hinge1"},{"mesh":1,"name":"Hinge2"},{"mesh":2,"name":"Circle"},{"mesh":3,"name":"SlinderFix"}],"meshes":[{"primitives":[{"attributes":{"POSITION":1,"TANGENT":2,"NORMAL":3,"TEXCOORD_0":4},"indices":0,"material":0}],"name":"Hinge1"},{"primitives":[{"attributes":{"POSITION":6,"TANGENT":7,"NORMAL":8,"TEXCOORD_0":9},"indices":5,"material":0}],"name":"Hinge2"},{"primitives":[{"attributes":{"POSITION":11,"TANGENT":12,"NORMAL":13,"TEXCOORD_0":14},"indices":10,"material":0}],"name":"Circle"},{"primitives":[{"attributes":{"POSITION":16,"TANGENT":17,"NORMAL":18,"TEXCOORD_0":19},"indices":15,"material":0}],"name":"SlinderFix"}],"accessors":[{"bufferView":0,"componentType":5123,"count":5184,"type":"SCALAR","name":"accessorIndices"},{"bufferView":1,"componentType":5126,"count":1950,"max":[0.8473898,0.09878456,0.2736391],"min":[-0.6228857,-0.09878456,0.131690666],"type":"VEC3","name":"accessorPositions"},{"bufferView":2,"componentType":5126,"count":1950,"type":"VEC4","name":"accessorTangents"},{"bufferView":1,"byteOffset":23400,"componentType":5126,"count":1950,"type":"VEC3","name":"accessorNormals"},{"bufferView":3,"componentType":5126,"count":1950,"type":"VEC2","name":"accessorUVs"},{"bufferView":0,"byteOffset":10368,"componentType":5123,"count":6144,"type":"SCALAR","name":"accessorIndices"},{"bufferView":1,"byteOffset":46800,"componentType":5126,"count":1807,"max":[3.37117386,0.124325924,0.2806802],"min":[0.6499635,-0.124325894,-0.08587473],"type":"VEC3","name":"accessorPositions"},{"bufferView":2,"byteOffset":31200,"componentType":5126,"count":1807,"type":"VEC4","name":"accessorTangents"},{"bufferView":1,"byteOffset":68484,"componentType":5126,"count":1807,"type":"VEC3","name":"accessorNormals"},{"bufferView":3,"byteOffset":15600,"componentType":5126,"count":1807,"type":"VEC2","name":"accessorUVs"},{"bufferView":0,"byteOffset":22656,"componentType":5123,"count":11898,"type":"SCALAR","name":"accessorIndices"},{"bufferView":1,"byteOffset":90168,"componentType":5126,"count":2967,"max":[0.6228854,0.5843254,0.2922813],"min":[-0.6228857,-0.5843252,-0.112720795],"type":"VEC3","name":"accessorPositions"},{"bufferView":2,"byteOffset":60112,"componentType":5126,"count":2967,"type":"VEC4","name":"accessorTangents"},{"bufferView":1,"byteOffset":125772,"componentType":5126,"count":2967,"type":"VEC3","name":"accessorNormals"},{"bufferView":3,"byteOffset":30056,"componentType":5126,"count":2967,"type":"VEC2","name":"accessorUVs"},{"bufferView":0,"byteOffset":46452,"componentType":5123,"count":768,"type":"SCALAR","name":"accessorIndices"},{"bufferView":1,"byteOffset":161376,"componentType":5126,"count":272,"max":[2.99233747,0.102726914,0.109109782],"min":[2.630911,-0.102726914,-0.03270387],"type":"VEC3","name":"accessorPositions"},{"bufferView":2,"byteOffset":107584,"componentType":5126,"count":272,"type":"VEC4","name":"accessorTangents"},{"bufferView":1,"byteOffset":164640,"componentType":5126,"count":272,"type":"VEC3","name":"accessorNormals"},{"bufferView":3,"byteOffset":53792,"componentType":5126,"count":272,"type":"VEC2","name":"accessorUVs"}],"bufferViews":[{"buffer":0,"byteLength":47988,"name":"bufferViewScalar"},{"buffer":0,"byteOffset":47988,"byteLength":167904,"byteStride":12,"name":"bufferViewFloatVec3"},{"buffer":0,"byteOffset":215892,"byteLength":111936,"byteStride":16,"name":"bufferViewFloatVec4"},{"buffer":0,"byteOffset":327828,"byteLength":55968,"byteStride":8,"name":"bufferViewFloatVec2"}],"buffers":[{"uri":"SliderCrankLinkage.bin","byteLength":383796}],"materials":[{"pbrMetallicRoughness":{"baseColorTexture":{"index":0},"metallicFactor":0.0,"roughnessFactor":0.450053632},"name":"lambert9"}],"textures":[{"sampler":0,"source":0,"name":"color.png"}],"images":[{"uri":"color.png"}],"samplers":[{"magFilter":9729,"minFilter":9987}]}